<?xml version="1.0" standalone="no"?><!DOCTYPE svg PUBLIC "-//W3C//DTD SVG 1.1//EN" "http://www.w3.org/Graphics/SVG/1.1/DTD/svg11.dtd"><svg t="1603430572911" class="icon" viewBox="0 0 1024 1024" version="1.1" xmlns="http://www.w3.org/2000/svg" p-id="4567" xmlns:xlink="http://www.w3.org/1999/xlink" width="200" height="200"><defs><style type="text/css"></style></defs><path d="M915.8 348c-0.7 1.5-0.7 2.9-2.2 4.4L515.1 747.3c-5.9 5.9-16.2 5.9-22.1 0L95.3 353.2c-0.7-0.7-0.7-2.2-1.5-3.7-11.8-7.4-19.9-19.9-19.9-34.6 0-23.5 18.4-41.9 41.9-41.9 10.3 0 19.9 3.7 27.2 10.3l0.7-0.7 349.4 346.3c5.9 5.9 16.2 5.9 22.1 0l347-344.8 2.2-2.2 0.7 0.7c7.4-5.9 16.9-10.3 27.2-10.3 22.8 0 41.9 19.1 41.9 41.9 0 14-8.1 26.5-18.4 33.8z" p-id="4568"></path></svg>