<?xml version="1.0" standalone="no"?><!DOCTYPE svg PUBLIC "-//W3C//DTD SVG 1.1//EN" "http://www.w3.org/Graphics/SVG/1.1/DTD/svg11.dtd"><svg t="1603424980240" class="icon" viewBox="0 0 1024 1024" version="1.1" xmlns="http://www.w3.org/2000/svg" p-id="1141" xmlns:xlink="http://www.w3.org/1999/xlink" width="200" height="200"><defs><style type="text/css"></style></defs><path d="M501.020444 979.228444C225.450667 979.228444 0 760.604444 0 489.642667 0 218.624 225.450667 0 501.020444 0s501.020444 218.624 501.020445 489.642667c0 270.961778-225.450667 489.585778-501.020445 489.585777z m0-910.904888C261.916444 68.266667 68.266667 257.365333 68.266667 489.642667s193.592889 421.262222 432.696889 421.262222c239.104 0 432.696889-188.984889 432.696888-421.262222S740.124444 68.266667 501.020444 68.266667zM337.066667 466.830222h350.663111c18.204444 0 34.133333 15.928889 34.133333 34.133334 0 18.261333-15.928889 34.190222-34.133333 34.190222H337.066667c-18.204444 0-34.133333-15.928889-34.133334-34.133334 0-18.204444 15.928889-34.133333 34.133334-34.133333z" p-id="1142"></path></svg>