<?xml version="1.0" standalone="no"?><!DOCTYPE svg PUBLIC "-//W3C//DTD SVG 1.1//EN" "http://www.w3.org/Graphics/SVG/1.1/DTD/svg11.dtd"><svg t="1602734930707" class="icon" viewBox="0 0 1024 1024" version="1.1" xmlns="http://www.w3.org/2000/svg" p-id="5301" xmlns:xlink="http://www.w3.org/1999/xlink" width="200" height="200"><defs><style type="text/css"></style></defs><path d="M511.999894 0.009813A508.832808 508.832808 0 0 0 0.009813 511.999893a508.832808 508.832808 0 0 0 511.990081 511.990081 508.832808 508.832808 0 0 0 511.99008-511.990081A508.832808 508.832808 0 0 0 511.999894 0.009813z m0 950.829578A438.839497 438.839497 0 1 1 950.839391 511.999893 440.140806 440.140806 0 0 1 511.999894 950.839391z" p-id="5302"></path><path d="M723.067804 476.821908h-175.889925v-175.889925a35.199318 35.199318 0 1 0-70.398636 0v175.889925h-175.889926a35.199318 35.199318 0 0 0 0 70.398636h175.889926v175.889926a35.199318 35.199318 0 1 0 70.398636 0v-175.889926h175.889925a35.199318 35.199318 0 0 0 0-70.398636z" p-id="5303"></path></svg>